HIERARCHY
ROOT Hips
{
  OFFSET 0.817752 99.0319 2.10555
  CHANNELS 6 Xposition Yposition Zposition Zrotation Xrotation Yrotation
  JOINT Spine
  {
    OFFSET 0 10.1816 0.1315
    CHANNELS 6 Xposition Yposition Zposition Zrotation Xrotation Yrotation
    JOINT Spine1
    {
      OFFSET 0 10.0835 -1.0008
      CHANNELS 6 Xposition Yposition Zposition Zrotation Xrotation Yrotation
      JOINT Spine2
      {
        OFFSET 0 9.1 -1.3734
        CHANNELS 6 Xposition Yposition Zposition Zrotation Xrotation Yrotation
        JOINT Neck
        {
          OFFSET 0 16.6717 -2.5162
          CHANNELS 6 Xposition Yposition Zposition Zrotation Xrotation Yrotation
          JOINT Head
          {
            OFFSET 0 9.6179 1.685
            CHANNELS 6 Xposition Yposition Zposition Zrotation Xrotation Yrotation
            JOINT HeadTop_End
            {
              OFFSET 0 17.8152 2.585
              CHANNELS 6 Xposition Yposition Zposition Zrotation Xrotation Yrotation
              End Site
              {
                OFFSET 0 0 0
              }
            }
            JOINT LeftEye
            {
              OFFSET 3.0676 6.4095 9.2836
              CHANNELS 6 Xposition Yposition Zposition Zrotation Xrotation Yrotation
              End Site
              {
                OFFSET 0 0 0
              }
            }
            JOINT RightEye
            {
              OFFSET -3.0676 6.4095 9.2835
              CHANNELS 6 Xposition Yposition Zposition Zrotation Xrotation Yrotation
              End Site
              {
                OFFSET 0 0 0
              }
            }
          }
        }
        JOINT LeftShoulder
        {
          OFFSET 4.5704 10.946 -2.628
          CHANNELS 6 Xposition Yposition Zposition Zrotation Xrotation Yrotation
          JOINT LeftArm
          {
            OFFSET 10.5924 -0.5246 -2.2321
            CHANNELS 6 Xposition Yposition Zposition Zrotation Xrotation Yrotation
            JOINT LeftForeArm
            {
              OFFSET 27.8415 -0.0001 0
              CHANNELS 6 Xposition Yposition Zposition Zrotation Xrotation Yrotation
              JOINT LeftHand
              {
                OFFSET 28.3288 0 0
                CHANNELS 6 Xposition Yposition Zposition Zrotation Xrotation Yrotation
                JOINT LeftHandThumb1
                {
                  OFFSET 2.4661 -1.575 2.6824
                  CHANNELS 6 Xposition Yposition Zposition Zrotation Xrotation Yrotation
                  JOINT LeftHandThumb2
                  {
                    OFFSET 3.2298 -1.8647 1.8647
                    CHANNELS 6 Xposition Yposition Zposition Zrotation Xrotation Yrotation
                    JOINT LeftHandThumb3
                    {
                      OFFSET 2.6526 -1.5315 1.5315
                      CHANNELS 6 Xposition Yposition Zposition Zrotation Xrotation Yrotation
                      End Site
                      {
                        OFFSET 1.9546 -1.1285 1.1285
                      }
                    }
                  }
                }
                JOINT LeftHandIndex1
                {
                  OFFSET 9.1093 -0.5171 2.2601
                  CHANNELS 6 Xposition Yposition Zposition Zrotation Xrotation Yrotation
                  JOINT LeftHandIndex2
                  {
                    OFFSET 3.6764 0 0
                    CHANNELS 6 Xposition Yposition Zposition Zrotation Xrotation Yrotation
                    JOINT LeftHandIndex3
                    {
                      OFFSET 2.8831 0 0
                      CHANNELS 6 Xposition Yposition Zposition Zrotation Xrotation Yrotation
                      End Site
                      {
                        OFFSET 2.3927 0 0
                      }
                    }
                  }
                }
                JOINT LeftHandMiddle1
                {
                  OFFSET 9.5334 0 0
                  CHANNELS 6 Xposition Yposition Zposition Zrotation Xrotation Yrotation
                  JOINT LeftHandMiddle2
                  {
                    OFFSET 3.6982 0 0
                    CHANNELS 6 Xposition Yposition Zposition Zrotation Xrotation Yrotation
                    JOINT LeftHandMiddle3
                    {
                      OFFSET 2.9509 0 0
                      CHANNELS 6 Xposition Yposition Zposition Zrotation Xrotation Yrotation
                      End Site
                      {
                        OFFSET 2.8339 0 0
                      }
                    }
                  }
                }
                JOINT LeftHandRing1
                {
                  OFFSET 9.1045 -0.0439 -1.8651
                  CHANNELS 6 Xposition Yposition Zposition Zrotation Xrotation Yrotation
                  JOINT LeftHandRing2
                  {
                    OFFSET 3.154 0 0
                    CHANNELS 6 Xposition Yposition Zposition Zrotation Xrotation Yrotation
                    JOINT LeftHandRing3
                    {
                      OFFSET 2.9377 0 0
                      CHANNELS 6 Xposition Yposition Zposition Zrotation Xrotation Yrotation
                      End Site
                      {
                        OFFSET 2.6475 0 0
                      }
                    }
                  }
                }
                JOINT LeftHandPinky1
                {
                  OFFSET 8.0778 -0.4887 -3.8061
                  CHANNELS 6 Xposition Yposition Zposition Zrotation Xrotation Yrotation
                  JOINT LeftHandPinky2
                  {
                    OFFSET 3.6 0 0
                    CHANNELS 6 Xposition Yposition Zposition Zrotation Xrotation Yrotation
                    JOINT LeftHandPinky3
                    {
                      OFFSET 2.1142 0 0
                      CHANNELS 6 Xposition Yposition Zposition Zrotation Xrotation Yrotation
                      End Site
                      {
                        OFFSET 1.9757 0 0
                      }
                    }
                  }
                }
              }
            }
          }
        }
        JOINT RightShoulder
        {
          OFFSET -4.57 10.9462 -2.628
          CHANNELS 6 Xposition Yposition Zposition Zrotation Xrotation Yrotation
          JOINT RightArm
          {
            OFFSET -10.5928 -0.5248 -2.2321
            CHANNELS 6 Xposition Yposition Zposition Zrotation Xrotation Yrotation
            JOINT RightForeArm
            {
              OFFSET -27.8415 0 0
              CHANNELS 6 Xposition Yposition Zposition Zrotation Xrotation Yrotation
              JOINT RightHand
              {
                OFFSET -28.3288 0 0.0001
                CHANNELS 6 Xposition Yposition Zposition Zrotation Xrotation Yrotation
                JOINT RightHandPinky1
                {
                  OFFSET -8.0767 -0.4885 -3.806
                  CHANNELS 6 Xposition Yposition Zposition Zrotation Xrotation Yrotation
                  JOINT RightHandPinky2
                  {
                    OFFSET -3.6 0 0.0001
                    CHANNELS 6 Xposition Yposition Zposition Zrotation Xrotation Yrotation
                    JOINT RightHandPinky3
                    {
                      OFFSET -2.1142 0 0
                      CHANNELS 6 Xposition Yposition Zposition Zrotation Xrotation Yrotation
                      End Site
                      {
                        OFFSET -1.9757 0 0
                      }
                    }
                  }
                }
                JOINT RightHandRing1
                {
                  OFFSET -9.1036 -0.0439 -1.8651
                  CHANNELS 6 Xposition Yposition Zposition Zrotation Xrotation Yrotation
                  JOINT RightHandRing2
                  {
                    OFFSET -3.154 0 0
                    CHANNELS 6 Xposition Yposition Zposition Zrotation Xrotation Yrotation
                    JOINT RightHandRing3
                    {
                      OFFSET -2.9377 0 0
                      CHANNELS 6 Xposition Yposition Zposition Zrotation Xrotation Yrotation
                      End Site
                      {
                        OFFSET -2.6475 0 0
                      }
                    }
                  }
                }
                JOINT RightHandMiddle1
                {
                  OFFSET -9.5325 0 0
                  CHANNELS 6 Xposition Yposition Zposition Zrotation Xrotation Yrotation
                  JOINT RightHandMiddle2
                  {
                    OFFSET -3.6982 0 0
                    CHANNELS 6 Xposition Yposition Zposition Zrotation Xrotation Yrotation
                    JOINT RightHandMiddle3
                    {
                      OFFSET -2.9509 0 0
                      CHANNELS 6 Xposition Yposition Zposition Zrotation Xrotation Yrotation
                      End Site
                      {
                        OFFSET -2.8339 0 0.0001
                      }
                    }
                  }
                }
                JOINT RightHandIndex1
                {
                  OFFSET -9.1083 -0.5168 2.2601
                  CHANNELS 6 Xposition Yposition Zposition Zrotation Xrotation Yrotation
                  JOINT RightHandIndex2
                  {
                    OFFSET -3.6764 0 0
                    CHANNELS 6 Xposition Yposition Zposition Zrotation Xrotation Yrotation
                    JOINT RightHandIndex3
                    {
                      OFFSET -2.8831 0 0
                      CHANNELS 6 Xposition Yposition Zposition Zrotation Xrotation Yrotation
                      End Site
                      {
                        OFFSET -2.3927 0 0
                      }
                    }
                  }
                }
                JOINT RightHandThumb1
                {
                  OFFSET -2.4648 -1.5727 2.6826
                  CHANNELS 6 Xposition Yposition Zposition Zrotation Xrotation Yrotation
                  JOINT RightHandThumb2
                  {
                    OFFSET -3.2298 -1.8647 1.8647
                    CHANNELS 6 Xposition Yposition Zposition Zrotation Xrotation Yrotation
                    JOINT RightHandThumb3
                    {
                      OFFSET -2.6526 -1.5314 1.5314
                      CHANNELS 6 Xposition Yposition Zposition Zrotation Xrotation Yrotation
                      End Site
                      {
                        OFFSET -1.9546 -1.1285 1.1285
                      }
                    }
                  }
                }
              }
            }
          }
        }
      }
    }
  }
  JOINT LeftUpLeg
  {
    OFFSET 8.2078 -6.7517 -1.5996
    CHANNELS 6 Xposition Yposition Zposition Zrotation Xrotation Yrotation
    JOINT LeftLeg
    {
      OFFSET 0 -44.3705 0.2846
      CHANNELS 6 Xposition Yposition Zposition Zrotation Xrotation Yrotation
      JOINT LeftFoot
      {
        OFFSET 0 -44.4279 -2.9822
        CHANNELS 6 Xposition Yposition Zposition Zrotation Xrotation Yrotation
        JOINT LeftToeBase
        {
          OFFSET 0 -8.7287 10.7106
          CHANNELS 6 Xposition Yposition Zposition Zrotation Xrotation Yrotation
          End Site
          {
            OFFSET 0 -0.0007 9.2781
          }
        }
      }
    }
  }
  JOINT RightUpLeg
  {
    OFFSET -8.2078 -6.7517 -1.5996
    CHANNELS 6 Xposition Yposition Zposition Zrotation Xrotation Yrotation
    JOINT RightLeg
    {
      OFFSET 0 -44.3705 0.2862
      CHANNELS 6 Xposition Yposition Zposition Zrotation Xrotation Yrotation
      JOINT RightFoot
      {
        OFFSET 0 -44.4277 -2.9838
        CHANNELS 6 Xposition Yposition Zposition Zrotation Xrotation Yrotation
        JOINT RightToeBase
        {
          OFFSET 0 -8.7287 10.7106
          CHANNELS 6 Xposition Yposition Zposition Zrotation Xrotation Yrotation
          End Site
          {
            OFFSET 0 -0.0007 9.2781
          }
        }
      }
    }
  }
}
MOTION
Frames:	4
Frame Time:	0.0333333
0.817754 99.0319 2.10555 -6.02338 -2.05853 33.4547 -3.55271e-015 10.1816 0.1315 -0.895095 21.3489 -2.60931 1.77636e-015 10.0835 -1.0008 0.807506 1.32196 -0.484382 -1.77636e-015 9.1 -1.3734 0.829214 1.33013 -0.456939 -3.55271e-015 16.6717 -2.5162 -2.29101 6.6127 -0.0210973 3.55271e-015 9.6179 1.685 -1.86049 -25.6995 -19.2467 7.10543e-015 17.8152 2.585 8.51047e-016 7.20594e-016 -6.36111e-015 3.0676 6.4095 9.2836 8.51047e-016 7.20594e-016 -6.36111e-015 -3.0676 6.4095 9.2835 8.51047e-016 7.20594e-016 -6.36111e-015 4.5704 10.946 -2.628 -18.5475 6.94039 -23.6362 10.5924 -0.5246 -2.2321 -41.7428 7.61983 18.8206 27.8415 -0.0001 0 -0.000228882 2.40616e-015 -110.055 28.3288 7.10543e-015 1.42109e-014 -36.4163 2.39619 -24.3869 2.4661 -1.575 2.6824 2.66542 -7.56627 -6.77108 3.2298 -1.8647 1.8647 -6.94472 13.8385 47.9246 2.6526 -1.5315 1.5315 13.04 -5.73857 3.73914 9.1093 -0.5171 2.2601 -30.5086 -1.9552 3.79111 3.6764 0 0 -17.4204 -0.26818 1.75026 2.8831 1.77636e-015 1.42109e-014 -17.4204 -0.26814 1.75027 9.5334 0 1.42109e-014 -27.3671 -1.67913 7.55589 3.6982 0 0 -24.4383 -0.523901 2.41903 2.9509 0 0 -24.4383 -0.523936 2.41902 9.1045 -0.0439 -1.8651 -35.0466 -2.36576 7.0579 3.154 3.55271e-015 -1.42109e-014 -32.122 -0.895472 3.10965 2.9377 0 0 -32.122 -0.895479 3.10965 8.0778 -0.4887 -3.8061 -33.0175 -2.08026 15.9097 3.6 0 1.42109e-014 -31.9214 -0.884583 3.09227 2.1142 0 -1.42109e-014 -31.5198 -0.863046 3.05734 -4.57 10.9462 -2.628 9.92934 4.2605 20.8177 -10.5928 -0.5248 -2.2321 58.2793 3.03868 -10.3489 -27.8415 0 -1.42109e-014 -1.55089e-005 4.77884e-006 95.9923 -28.3288 -7.10543e-015 0.0001 14.5672 18.2695 13.6612 -8.0767 -0.4885 -3.806 14.0175 -0.642977 -5.04105 -3.6 0 0.0001 31.2563 -0.673044 -2.4072 -2.1142 3.55271e-015 0 31.2214 -0.672389 -2.40615 -9.1036 -0.0439 -1.8651 13.7251 -0.619655 -6.76333 -3.154 0 1.42109e-014 32.8777 -0.743626 -2.51997 -2.9377 -3.55271e-015 -1.42109e-014 32.8527 -0.742534 -2.51827 -9.5325 1.42109e-014 1.42109e-014 6.43713 -0.234557 -4.85979 -3.6982 0 1.42109e-014 28.7678 -0.572978 -2.23392 -2.9509 -7.10543e-015 0 28.7603 -0.57266 -2.23542 -9.1083 -0.5168 2.2601 -3.8088 0.202002 2.27941 -3.6764 0 0 29.6628 -0.608403 -2.29723 -2.8831 -7.10543e-015 -1.42109e-014 29.6628 -0.608362 -2.29724 -2.4648 -1.5727 2.6826 -9.19895 -7.6163 1.53533 -3.2298 -1.8647 1.8647 -3.06938 8.65541 -19.7284 -2.6526 -1.5314 1.5314 -14.8351 2.19326 -14.639 8.2078 -6.7517 -1.5996 20.1361 -16.4897 1.31649 -3.55271e-015 -44.3705 0.2846 0.598243 43.5424 6.42474 3.55271e-015 -44.4279 -2.9822 -9.47796 -2.90448 -0.677988 0 -8.7287 10.7106 -2.81281 -18.6174 -0.825319 -8.2078 -6.7517 -1.5996 -8.82357 0.918353 -5.18431 0 -44.3705 0.2862 1.2052 24.5537 9.5806 -3.55271e-015 -44.4277 -2.9838 10.2029 -3.28469 11.8807 -7.10543e-015 -8.7287 10.7106 -2.84368 -20.0217 -0.901879 
-3.49167 96.8024 3.37692 -4.82092 -4.62991 29.6233 0 10.1816 0.1315 -1.85819 24.43 -2.20455 -7.10543e-015 10.0835 -1.0008 0.68621 1.54849 -0.446367 0 9.1 -1.3734 0.707781 1.55643 -0.416383 0 16.6717 -2.5162 -2.49523 6.29212 0.0858483 0 9.6179 1.685 -1.13708 -26.7216 -17.2259 7.10543e-015 17.8152 2.585 1.86361e-015 0 -1.59028e-015 3.0676 6.4095 9.2836 1.86361e-015 0 -1.59028e-015 -3.0676 6.4095 9.2835 1.86361e-015 0 -1.59028e-015 4.5704 10.946 -2.628 -18.7441 6.79243 -22.9682 10.5924 -0.5246 -2.2321 -38.4822 7.68509 16.6928 27.8415 -0.0001 0 -0.000217314 -2.97901e-005 -104.125 28.3288 0 0 -32.9908 5.13799 -22.2627 2.4661 -1.575 2.6824 2.41068 -7.24557 -6.14589 3.2298 -1.8647 1.8647 -7.08688 13.9245 48.4039 2.6526 -1.5315 1.5315 13.0542 -5.85792 3.56072 9.1093 -0.5171 2.2601 -29.7403 -1.88679 3.33071 3.6764 0 0 -20.3714 -0.365702 2.03522 2.8831 -1.77636e-015 -1.42109e-014 -20.37 -0.365678 2.03508 9.5334 3.55271e-015 2.84217e-014 -26.9464 -1.64269 7.74359 3.6982 -3.55271e-015 1.42109e-014 -26.0353 -0.593473 2.56653 2.9509 -1.77636e-015 1.42109e-014 -26.031 -0.593286 2.56614 9.1045 -0.0439 -1.8651 -35.3593 -2.39418 7.31456 3.154 0 -1.42109e-014 -34.9873 -1.05726 3.35361 2.9377 0 -1.42109e-014 -34.987 -1.05723 3.35359 8.0778 -0.4887 -3.8061 -34.6488 -2.2359 15.708 3.6 0 0 -33.3765 -0.964799 3.21745 2.1142 -5.32907e-015 0 -32.9816 -0.942707 3.18368 -4.57 10.9462 -2.628 8.9488 4.15981 21.0599 -10.5928 -0.5248 -2.2321 61.1642 2.27148 -9.3601 -27.8415 0 0 0.000167847 1.59853e-014 90.505 -28.3288 0 0.0001 17.6221 22.7722 8.59391 -8.0767 -0.4885 -3.806 15.5082 -0.729663 -5.81803 -3.6 0 0.0001 34.1318 -0.798859 -2.60343 -2.1142 0 -7.10543e-015 34.1065 -0.798598 -2.60305 -9.1036 -0.0439 -1.8651 15.1764 -0.705747 -6.78877 -3.154 0 0 36.3314 -0.902627 -2.75042 -2.9377 -3.55271e-015 0 36.3055 -0.901377 -2.74874 -9.5325 0 -7.10543e-015 6.27334 -0.225998 -5.0304 -3.6982 0 0 29.3278 -0.595028 -2.27359 -2.9509 0 0 29.3232 -0.594825 -2.2753 -9.1083 -0.5168 2.2601 -3.81552 0.203078 2.42002 -3.6764 0 0 29.7251 -0.610885 -2.30163 -2.8831 -7.10543e-015 0 29.7269 -0.610953 -2.30174 -2.4648 -1.5727 2.6826 -9.23096 -7.37941 1.2855 -3.2298 -1.8647 1.8647 -3.06587 8.61669 -19.6685 -2.6526 -1.5314 1.5314 -14.8369 2.44931 -14.9559 8.2078 -6.7517 -1.5996 20.6004 -20.6057 -2.52628 -3.55271e-015 -44.3705 0.2846 1.45941 56.6148 5.22781 -3.55271e-015 -44.4279 -2.9822 -4.25243 1.75589 -0.23018 0 -8.7287 10.7106 -4.30078 -20.7942 -1.35651 -8.2078 -6.7517 -1.5996 -6.93112 0.477568 -4.53438 0 -44.3705 0.2862 0.827719 31.2805 9.16968 0 -44.4277 -2.9838 6.75704 -15.0906 15.611 3.55271e-015 -8.7287 10.7106 -9.82135e-007 -16.1908 1.67281e-005 
-6.12302 96.0965 4.58307 -4.46828 -6.21493 24.0621 -3.55271e-015 10.1816 0.1315 -2.03793 25.5441 -1.53326 0 10.0835 -1.0008 0.416436 1.8171 -0.336009 0 9.1 -1.3734 0.431913 1.82162 -0.313526 0 16.6717 -2.5162 -2.79958 6.22452 0.242162 0 9.6179 1.685 -0.863069 -27.1379 -14.2429 -3.55271e-015 17.8152 2.585 -1.21756e-015 -7.95139e-016 1.59028e-015 3.0676 6.4095 9.2836 -1.21756e-015 -7.95139e-016 1.59028e-015 -3.0676 6.4095 9.2835 -1.21756e-015 -7.95139e-016 1.59028e-015 4.5704 10.946 -2.628 -18.3516 6.08749 -20.1154 10.5924 -0.5246 -2.2321 -39.5712 8.65819 14.1366 27.8415 -0.0001 0 -0.000274472 4.76181e-006 -94.4746 28.3288 0 0 -20.1007 6.32755 -21.3577 2.4661 -1.575 2.6824 2.16908 -6.90864 -5.49659 3.2298 -1.8647 1.8647 -7.23464 14.0133 48.8995 2.6526 -1.5315 1.5315 13.065 -5.95029 3.42233 9.1093 -0.5171 2.2601 -27.5674 -1.69679 2.29683 3.6764 -3.55271e-015 0 -23.0635 -0.467409 2.29054 2.8831 0 1.42109e-014 -23.0579 -0.467171 2.29001 9.5334 0 0 -25.1322 -1.49201 7.79165 3.6982 0 0 -28.4353 -0.705614 2.78446 2.9509 3.55271e-015 0 -28.4275 -0.705239 2.78376 9.1045 -0.0439 -1.8651 -34.7921 -2.33969 7.69381 3.154 0 0 -37.8675 -1.23201 3.59045 2.9377 0 1.42109e-014 -37.8669 -1.23198 3.5904 8.0778 -0.4887 -3.8061 -35.7983 -2.34486 15.6919 3.6 0 -1.42109e-014 -34.043 -1.00258 3.27412 2.1142 0 0 -33.68 -0.981918 3.2433 -4.57 10.9462 -2.628 8.68405 4.30578 22.3115 -10.5928 -0.5248 -2.2321 59.5113 3.57567 -7.90715 -27.8415 7.10543e-015 0 3.08753e-005 -3.07935e-006 87.7725 -28.3288 0 0.0001 19.5809 25.7327 5.82757 -8.0767 -0.4885 -3.806 18.1332 -0.889349 -6.69788 -3.6 0 0.0001 37.3239 -0.949899 -2.81355 -2.1142 1.06581e-014 -7.10543e-015 37.3074 -0.950047 -2.81379 -9.1036 -0.0439 -1.8651 17.6847 -0.860949 -6.73552 -3.154 0 0 40.4924 -1.1122 -3.01477 -2.9377 -3.55271e-015 -7.10543e-015 40.4644 -1.11073 -3.01305 -9.5325 -7.10543e-015 -7.10543e-015 7.37046 -0.280221 -5.08618 -3.6982 0 7.10543e-015 30.5882 -0.646026 -2.36213 -2.9509 0 0 30.5855 -0.645913 -2.36396 -9.1083 -0.5168 2.2601 -2.2012 0.146202 2.35587 -3.6764 0 -7.10543e-015 30.0197 -0.622758 -2.32234 -2.8831 3.55271e-015 7.10543e-015 30.02 -0.622786 -2.32234 -2.4648 -1.5727 2.6826 -9.24011 -7.08083 0.968021 -3.2298 -1.8647 1.8647 -3.06807 8.65524 -19.73 -2.6526 -1.5314 1.5314 -14.8382 2.81812 -15.4114 8.2078 -6.7517 -1.5996 17.3267 -23.2869 -4.21035 0 -44.3705 0.2846 3.38809 66.6651 -0.488192 0 -44.4279 -2.9822 -1.53274 3.83733 -1.03727 0 -8.7287 10.7106 -0.859946 -16.1075 -0.231326 -8.2078 -6.7517 -1.5996 -4.93015 -0.464417 -3.07411 0 -44.3705 0.2862 -1.31317 35.0328 10.1874 -3.55271e-015 -44.4277 -2.9838 4.38245 -18.8664 16.8883 -3.55271e-015 -8.7287 10.7106 1.31426e-006 -15.6973 6.58579e-007 
-7.44186 97.3199 5.92459 -5.02501 -6.59677 17.6629 3.55271e-015 10.1816 0.1315 -1.66434 25.1247 -1.14357 3.55271e-015 10.0835 -1.0008 0.183231 1.96633 -0.252643 0 9.1 -1.3734 0.193999 1.96844 -0.23937 3.55271e-015 16.6717 -2.5162 -2.84596 6.37504 0.373145 3.55271e-015 9.6179 1.685 -0.379 -27.0318 -10.4027 0 17.8152 2.585 1.53592e-015 -4.96962e-017 1.59028e-015 3.0676 6.4095 9.2836 1.53592e-015 -4.96962e-017 1.59028e-015 -3.0676 6.4095 9.2835 1.53592e-015 -4.96962e-017 1.59028e-015 4.5704 10.946 -2.628 -17.7611 5.3367 -17.0597 10.5924 -0.5246 -2.2321 -45.5653 7.40521 11.9345 27.8415 -0.0001 -1.42109e-014 -0.000202971 -1.15886e-006 -79.3434 28.3288 3.55271e-015 0 -1.16772 5.90063 -23.0414 2.4661 -1.575 2.6824 1.48384 -6.09702 -3.9278 3.2298 -1.8647 1.8647 -7.56526 14.2098 50.0005 2.6526 -1.5315 1.5315 13.112 -6.36999 2.79069 9.1093 -0.5171 2.2601 -26.9251 -1.64012 1.68804 3.6764 0 -1.42109e-014 -25.2258 -0.557693 2.492 2.8831 0 1.42109e-014 -25.2216 -0.55752 2.49161 9.5334 0 -1.42109e-014 -24.1156 -1.40898 7.89703 3.6982 -3.55271e-015 0 -30.6049 -0.8148 2.9773 2.9509 -3.55271e-015 1.42109e-014 -30.5941 -0.814242 2.97636 9.1045 -0.0439 -1.8651 -35.7388 -2.42706 8.00308 3.154 0 0 -40.3686 -1.39328 3.78882 2.9377 3.55271e-015 0 -40.3686 -1.39326 3.78883 8.0778 -0.4887 -3.8061 -37.9395 -2.56108 15.115 3.6 -1.77636e-015 0 -37.5003 -1.20908 3.56075 2.1142 0 -7.10543e-015 -37.1551 -1.18767 3.5327 -4.57 10.9462 -2.628 9.1498 4.53846 23.3083 -10.5928 -0.5248 -2.2321 55.166 6.48734 -5.57984 -27.8415 0 1.42109e-014 -1.25489e-005 5.27779e-006 86.8488 -28.3288 -7.10543e-015 0.0001 20.5966 24.3791 6.4137 -8.0767 -0.4885 -3.806 22.0347 -1.1428 -7.47476 -3.6 0 0.0001 41.5489 -1.16737 -3.07823 -2.1142 0 -7.10543e-015 41.5362 -1.16774 -3.07866 -9.1036 -0.0439 -1.8651 21.5707 -1.11681 -6.29705 -3.154 -7.10543e-015 7.10543e-015 44.9084 -1.35501 -3.27794 -2.9377 7.10543e-015 7.10543e-015 44.8747 -1.35309 -3.27603 -9.5325 0 -7.10543e-015 8.82831 -0.353797 -5.42924 -3.6982 0 0 31.1796 -0.670609 -2.40328 -2.9509 0 0 31.1806 -0.670672 -2.40535 -9.1083 -0.5168 2.2601 0.229183 0.0527071 2.1312 -3.6764 7.10543e-015 0 29.9477 -0.619852 -2.31729 -2.8831 3.55271e-015 7.10543e-015 29.9451 -0.619742 -2.31709 -2.4648 -1.5727 2.6826 -9.0612 -6.70525 0.547559 -3.2298 -1.8647 1.8647 -3.07119 8.70645 -19.8113 -2.6526 -1.5314 1.5314 -14.8378 3.222 -15.9088 8.2078 -6.7517 -1.5996 13.0567 -24.7058 -2.88987 0 -44.3705 0.2846 1.24731 70.5576 -5.90501 -3.55271e-015 -44.4279 -2.9822 -1.76704 2.24279 -1.28743 0 -8.7287 10.7106 1.14003e-006 -9.49947 -5.21095e-006 -8.2078 -6.7517 -1.5996 -3.53465 -2.15025 -1.28782 0 -44.3705 0.2862 -3.08645 36.0867 11.6496 -7.10543e-015 -44.4277 -2.9838 4.13381 -12.7311 18.869 0 -8.7287 10.7106 -0.321039 -17.8464 -0.0974288 
